<?xml version="1.0" encoding="utf-8"?>
<!-- Generator: Adobe Illustrator 25.0.1, SVG Export Plug-In . SVG Version: 6.00 Build 0)  -->
<svg version="1.1" id="Calque_1" xmlns="http://www.w3.org/2000/svg" xmlns:xlink="http://www.w3.org/1999/xlink" x="0px" y="0px"
	 viewBox="0 0 70.47 70.47" style="enable-background:new 0 0 70.47 70.47;" xml:space="preserve">
<style type="text/css">
	.st0{fill:#FFFFFF;}
	.st1{fill:#00FFFF;}
</style>
<g>
	<path class="st0" d="M35.24,70.47C15.81,70.47,0,54.66,0,35.24S15.81,0,35.24,0s35.24,15.81,35.24,35.24S54.66,70.47,35.24,70.47z
		 M35.24,1C16.36,1,1,16.36,1,35.24c0,18.88,15.36,34.24,34.24,34.24c18.88,0,34.24-15.36,34.24-34.24C69.47,16.36,54.11,1,35.24,1z
		"/>
	<path class="st1" d="M14.34,45.73c-0.42,0-0.83-0.16-1.15-0.48c-0.64-0.64-0.64-1.67,0-2.3L34.64,21.5l21.13,21.13
		c0.64,0.64,0.64,1.67,0,2.3c-0.64,0.64-1.67,0.64-2.3,0L34.64,26.11L15.49,45.26C15.17,45.57,14.76,45.73,14.34,45.73z"/>
</g>
</svg>
