<?xml version="1.0" encoding="utf-8"?>
<!-- Generator: Adobe Illustrator 25.0.1, SVG Export Plug-In . SVG Version: 6.00 Build 0)  -->
<svg version="1.1" id="Calque_1" xmlns="http://www.w3.org/2000/svg" xmlns:xlink="http://www.w3.org/1999/xlink" x="0px" y="0px"
	 viewBox="0 0 70.47 70.47" style="enable-background:new 0 0 70.47 70.47;" xml:space="preserve">
<style type="text/css">
	.st0{fill:#FFFFFF;}
	.st1{fill:#00FFFF;}
</style>
<g>
	<path class="st0" d="M35.24,70.47C15.81,70.47,0,54.66,0,35.24C0,15.81,15.81,0,35.24,0s35.24,15.81,35.24,35.24
		C70.47,54.66,54.66,70.47,35.24,70.47z M35.24,1C16.36,1,1,16.36,1,35.24s15.36,34.23,34.24,34.23s34.24-15.36,34.24-34.23
		S54.11,1,35.24,1z"/>
	<g>
		<path class="st1" d="M58,35.84H12c-0.9,0-1.63-0.73-1.63-1.63s0.73-1.63,1.63-1.63h46c0.9,0,1.63,0.73,1.63,1.63
			S58.9,35.84,58,35.84z"/>
	</g>
</g>
</svg>
