<?xml version="1.0" encoding="utf-8"?>
<!-- Generator: Adobe Illustrator 25.0.1, SVG Export Plug-In . SVG Version: 6.00 Build 0)  -->
<svg version="1.1" id="Calque_1" xmlns="http://www.w3.org/2000/svg" xmlns:xlink="http://www.w3.org/1999/xlink" x="0px" y="0px"
	 viewBox="0 0 125.78 56.48" style="enable-background:new 0 0 125.78 56.48;" xml:space="preserve">
<style type="text/css">
	.st0{fill:#FFFFFF;}
	.st1{fill:#00FFFF;}
</style>
<g>
	<path class="st0" d="M76.32,38.46c-2.1,0-3.81-0.69-5.13-2.07c-1.32-1.38-1.98-3.23-1.98-5.54v-0.49c0-1.54,0.29-2.91,0.88-4.12
		c0.59-1.21,1.41-2.15,2.46-2.84c1.06-0.68,2.2-1.02,3.43-1.02c2.02,0,3.58,0.66,4.7,1.99c1.12,1.33,1.68,3.23,1.68,5.7v1.1h-10.5
		c0.04,1.53,0.48,2.76,1.34,3.7c0.85,0.94,1.94,1.41,3.26,1.41c0.94,0,1.73-0.19,2.38-0.57s1.22-0.89,1.71-1.52l1.62,1.26
		C80.87,37.46,78.92,38.46,76.32,38.46z M75.99,24.56c-1.07,0-1.97,0.39-2.69,1.17c-0.73,0.78-1.17,1.87-1.35,3.27h7.77v-0.2
		c-0.08-1.35-0.44-2.39-1.09-3.13S77.1,24.56,75.99,24.56z"/>
	<path class="st0" d="M92.66,25.31l5-8h3.24l-6.59,10.34l6.75,10.52h-3.27l-5.13-8.14l-5.16,8.14h-3.25l6.76-10.52l-6.6-10.34h3.22
		L92.66,25.31z"/>
	<path class="st0" d="M103.85,18.56c0-0.43,0.13-0.79,0.39-1.09s0.65-0.44,1.17-0.44s0.91,0.15,1.17,0.44s0.4,0.66,0.4,1.09
		s-0.13,0.79-0.4,1.08c-0.27,0.29-0.66,0.43-1.17,0.43s-0.91-0.14-1.17-0.43C103.98,19.34,103.85,18.99,103.85,18.56z M106.71,38.17
		h-2.65v-15.5h2.65V38.17z"/>
	<path class="st0" d="M125.78,19.56h-6.71v18.61h-2.74V19.56h-6.69v-2.25h16.13V19.56z"/>
</g>
<path class="st0" d="M28.24,56.48C12.67,56.48,0,43.81,0,28.24C0,12.67,12.67,0,28.24,0s28.24,12.67,28.24,28.24
	C56.48,43.81,43.81,56.48,28.24,56.48z M28.24,1C13.22,1,1,13.22,1,28.24s12.22,27.24,27.24,27.24s27.24-12.22,27.24-27.24
	S43.26,1,28.24,1z"/>
<path class="st1" d="M35.32,46.23c-0.33,0-0.67-0.13-0.92-0.38L17.27,28.71l16.88-16.88c0.51-0.51,1.33-0.51,1.84,0
	s0.51,1.33,0,1.84L20.95,28.71l15.29,15.29c0.51,0.51,0.51,1.33,0,1.84C35.99,46.1,35.66,46.23,35.32,46.23z"/>
</svg>
