<?xml version="1.0" encoding="utf-8"?>
<!-- Generator: Adobe Illustrator 25.0.1, SVG Export Plug-In . SVG Version: 6.00 Build 0)  -->
<svg version="1.1" id="Calque_1" xmlns="http://www.w3.org/2000/svg" xmlns:xlink="http://www.w3.org/1999/xlink" x="0px" y="0px"
	 viewBox="0 0 122.41 300" style="enable-background:new 0 0 122.41 300;" xml:space="preserve">
<style type="text/css">
	.st0{fill:#FFFFFF;}
	.st1{fill:#00FFFF;}
</style>
<g>
	<path d="M98.42,300H24c-13.25,0-24-10.74-24-24V24C0,10.74,10.74,0,24,0h74.42c13.25,0,24,10.74,24,24V276
		C122.41,289.26,111.67,300,98.42,300z"/>
	<g>
		<path class="st0" d="M60.34,264.1c-24.99,0-45.33-20.33-45.33-45.33c0-24.99,20.33-45.33,45.33-45.33
			c24.99,0,45.33,20.33,45.33,45.33C105.67,243.76,85.34,264.1,60.34,264.1z M60.34,177.5c-22.76,0-41.27,18.51-41.27,41.27
			s18.51,41.27,41.27,41.27c22.76,0,41.27-18.51,41.27-41.27S83.1,177.5,60.34,177.5z"/>
		<path class="st1" d="M61.08,235.89l-26.34-26.34c-0.79-0.79-0.79-2.08,0-2.87c0.79-0.79,2.08-0.79,2.87,0l23.47,23.47l23.87-23.87
			c0.79-0.79,2.08-0.79,2.87,0c0.79,0.79,0.79,2.08,0,2.87L61.08,235.89z"/>
		<g>
			<path class="st0" d="M70.24,58.12v-7.64H49.52v-6.14h20.72v-7.5h4.74v21.28H70.24z"/>
			<path class="st0" d="M58.52,70.17v-3.32h-9.01v-6.14h25.46v10.02c0,3.02-0.67,5.38-2.01,7.08c-1.34,1.7-3.23,2.55-5.68,2.55
				c-1.77,0-3.24-0.36-4.4-1.08c-1.16-0.72-2.11-1.84-2.83-3.37l-10.28,5.32h-0.26v-6.58L58.52,70.17z M63.24,66.85v3.88
				c0,1.17,0.31,2.04,0.92,2.63c0.61,0.59,1.47,0.88,2.57,0.88c1.1,0,1.96-0.3,2.58-0.89c0.62-0.59,0.94-1.47,0.94-2.62v-3.88H63.24
				z"/>
			<path class="st0" d="M49.52,90.02v-5.91h18.92v5.91H49.52z M73.32,83.76c0.84,0,1.53,0.3,2.06,0.91c0.54,0.61,0.8,1.39,0.8,2.36
				s-0.27,1.75-0.8,2.36c-0.54,0.61-1.22,0.91-2.06,0.91c-0.84,0-1.53-0.3-2.06-0.91c-0.54-0.61-0.8-1.39-0.8-2.36
				s0.27-1.75,0.8-2.36C71.79,84.06,72.48,83.76,73.32,83.76z"/>
			<path class="st0" d="M53.71,101.65c0,0.83,0.22,1.47,0.67,1.92c0.45,0.45,1.08,0.68,1.88,0.66v5.53c-2.08,0-3.78-0.74-5.11-2.23
				c-1.33-1.49-1.99-3.4-1.99-5.74c0-2.75,0.86-4.92,2.59-6.5c1.73-1.59,4.12-2.38,7.17-2.38h0.24c1.91,0,3.6,0.35,5.06,1.06
				c1.46,0.71,2.59,1.72,3.38,3.05s1.18,2.9,1.18,4.72c0,2.46-0.68,4.41-2.05,5.86c-1.36,1.45-3.21,2.17-5.54,2.17v-5.53
				c0.98,0,1.73-0.24,2.26-0.72c0.52-0.48,0.79-1.12,0.79-1.92c0-1.53-0.97-2.42-2.92-2.68c-0.62-0.08-1.47-0.12-2.55-0.12
				c-1.9,0-3.22,0.23-3.95,0.68C54.08,99.93,53.71,100.66,53.71,101.65z"/>
			<path class="st0" d="M59,121.18l-2.76-2.52h-6.72v-6.14h25.46v6.14H63.75l3.24,2.13l7.99,5.49v7.59l-11.26-8.6l-14.2,8.6v-7.27
				L59,121.18z"/>
			<path class="st0" d="M56.28,148.57c0.9,0,1.6-0.32,2.1-0.95c0.5-0.64,1.02-1.75,1.56-3.35c0.54-1.6,1.06-2.9,1.56-3.92
				c1.62-3.3,3.85-4.95,6.68-4.95c1.41,0,2.66,0.41,3.73,1.23c1.08,0.82,1.92,1.99,2.52,3.49c0.6,1.5,0.9,3.19,0.9,5.07
				c0,1.83-0.33,3.47-0.98,4.92c-0.65,1.45-1.58,2.58-2.79,3.38c-1.21,0.8-2.59,1.21-4.14,1.21v-6.12c1.04,0,1.84-0.32,2.41-0.95
				s0.86-1.5,0.86-2.58c0-1.1-0.24-1.96-0.73-2.6c-0.48-0.63-1.1-0.95-1.84-0.95c-0.65,0-1.24,0.35-1.77,1.05
				c-0.53,0.7-1.08,1.93-1.64,3.69c-0.57,1.76-1.17,3.21-1.83,4.34c-1.59,2.75-3.77,4.13-6.56,4.13c-2.23,0-3.98-0.84-5.25-2.52
				c-1.27-1.68-1.91-3.98-1.91-6.91c0-2.06,0.37-3.93,1.11-5.6c0.74-1.67,1.75-2.93,3.04-3.78c1.29-0.84,2.77-1.27,4.45-1.27v6.16
				c-1.36,0-2.37,0.35-3.02,1.06c-0.65,0.71-0.97,1.85-0.97,3.44c0,1.01,0.22,1.82,0.66,2.41
				C54.88,148.27,55.49,148.57,56.28,148.57z"/>
		</g>
	</g>
</g>
</svg>
