<?xml version="1.0" encoding="utf-8"?>
<!-- Generator: Adobe Illustrator 25.0.1, SVG Export Plug-In . SVG Version: 6.00 Build 0)  -->
<svg version="1.1" id="Calque_1" xmlns="http://www.w3.org/2000/svg" xmlns:xlink="http://www.w3.org/1999/xlink" x="0px" y="0px"
	 viewBox="0 0 25.8 26.85" style="enable-background:new 0 0 25.8 26.85;" xml:space="preserve">
<style type="text/css">
	.st0{fill:#FFFFFF;}
</style>
<path class="st0" d="M24.88,26.85H0.93C0.41,26.85,0,26.44,0,25.93V13.82c0-0.51,0.41-0.93,0.93-0.93s0.93,0.41,0.93,0.93V25h22.1
	V12.27L13.03,2.18L5.06,9.42C4.68,9.77,4.1,9.74,3.76,9.36C3.41,8.98,3.44,8.4,3.82,8.05l8.59-7.81c0.36-0.32,0.9-0.32,1.25,0
	L25.5,11.18c0.19,0.18,0.3,0.42,0.3,0.68v14.06C25.8,26.44,25.39,26.85,24.88,26.85z"/>
</svg>
