<?xml version="1.0" encoding="utf-8"?>
<!-- Generator: Adobe Illustrator 25.0.1, SVG Export Plug-In . SVG Version: 6.00 Build 0)  -->
<svg version="1.1" id="Calque_1" xmlns="http://www.w3.org/2000/svg" xmlns:xlink="http://www.w3.org/1999/xlink" x="0px" y="0px"
	 viewBox="0 0 23.22 26.52" style="enable-background:new 0 0 23.22 26.52;" xml:space="preserve">
<style type="text/css">
	.st0{fill:#FFFFFF;}
	.st1{fill:#00FFFF;}
</style>
<g>
	<path class="st0" d="M18.15,0H6.32C3.52,0,1.25,2.27,1.25,5.07c0,0.42,0.34,0.76,0.76,0.76s0.76-0.34,0.76-0.76
		c0-1.96,1.59-3.55,3.55-3.55h11.84c1.96,0,3.55,1.59,3.55,3.55v16.38c0,1.96-1.59,3.55-3.55,3.55H6.32c-1.96,0-3.55-1.59-3.55-3.55
		c0-0.42-0.34-0.76-0.76-0.76s-0.76,0.34-0.76,0.76c0,2.79,2.27,5.07,5.07,5.07h11.84c2.79,0,5.07-2.27,5.07-5.07V5.07
		C23.22,2.27,20.95,0,18.15,0z"/>
	<path class="st1" d="M6.51,18.28c-0.4,0.4-0.4,1.05,0,1.45c0.2,0.2,0.46,0.3,0.72,0.3s0.52-0.1,0.72-0.3l5.38-5.38
		c0.02-0.02,0.02-0.04,0.04-0.06c0.07-0.08,0.14-0.17,0.18-0.27c0.05-0.12,0.08-0.26,0.08-0.39s-0.03-0.27-0.08-0.39
		c-0.05-0.11-0.12-0.21-0.2-0.3c-0.01-0.01-0.01-0.02-0.02-0.03L7.87,7.44c-0.4-0.4-1.05-0.4-1.44,0c-0.4,0.4-0.4,1.05,0,1.44
		l3.72,3.72H1.02C0.46,12.61,0,13.07,0,13.63s0.46,1.02,1.02,1.02h9.13L6.51,18.28z"/>
</g>
</svg>
