<?xml version="1.0" encoding="utf-8"?>
<!-- Generator: Adobe Illustrator 25.0.1, SVG Export Plug-In . SVG Version: 6.00 Build 0)  -->
<svg version="1.1" id="Calque_1" xmlns="http://www.w3.org/2000/svg" xmlns:xlink="http://www.w3.org/1999/xlink" x="0px" y="0px"
	 viewBox="0 0 25.97 26.52" style="enable-background:new 0 0 25.97 26.52;" xml:space="preserve">
<style type="text/css">
	.st0{fill-rule:evenodd;clip-rule:evenodd;fill:#00FFFF;}
	.st1{fill:#FFFFFF;}
</style>
<g>
	<path class="st0" d="M3.87,25.57V24c0-1.57,1.52-6.27,9.11-6.27s9.11,4.7,9.11,6.27v1.57H3.87z M12.99,16.16
		c2.8,0,5.06-2.11,5.06-4.7s-2.27-4.7-5.06-4.7s-5.06,2.11-5.06,4.7S10.19,16.16,12.99,16.16z"/>
	<path class="st1" d="M20.9,26.52H5.07C2.27,26.52,0,24.24,0,21.45V5.07C0,2.27,2.27,0,5.07,0H20.9c2.79,0,5.07,2.27,5.07,5.07
		v16.38C25.97,24.24,23.7,26.52,20.9,26.52z M5.07,1.52c-1.96,0-3.55,1.59-3.55,3.55v16.38c0,1.96,1.59,3.55,3.55,3.55H20.9
		c1.96,0,3.55-1.59,3.55-3.55V5.07c0-1.96-1.59-3.55-3.55-3.55H5.07z"/>
</g>
</svg>
