<?xml version="1.0" encoding="utf-8"?>
<!-- Generator: Adobe Illustrator 25.0.1, SVG Export Plug-In . SVG Version: 6.00 Build 0)  -->
<svg version="1.1" id="Calque_1" xmlns="http://www.w3.org/2000/svg" xmlns:xlink="http://www.w3.org/1999/xlink" x="0px" y="0px"
	 viewBox="0 0 23.22 26.52" style="enable-background:new 0 0 23.22 26.52;" xml:space="preserve">
<style type="text/css">
	.st0{fill:#FFFFFF;}
	.st1{fill:#00FFFF;}
</style>
<g>
	<path class="st0" d="M18.15,0H6.32C3.52,0,1.25,2.27,1.25,5.07c0,0.42,0.34,0.76,0.76,0.76s0.76-0.34,0.76-0.76
		c0-1.96,1.59-3.55,3.55-3.55h11.84c1.96,0,3.55,1.59,3.55,3.55v16.38c0,1.96-1.59,3.55-3.55,3.55H6.32c-1.96,0-3.55-1.59-3.55-3.55
		c0-0.42-0.34-0.76-0.76-0.76s-0.76,0.34-0.76,0.76c0,2.79,2.27,5.07,5.07,5.07h11.84c2.79,0,5.07-2.27,5.07-5.07V5.07
		C23.22,2.27,20.95,0,18.15,0z"/>
	<path class="st1" d="M7.12,8.89c0.4-0.4,0.4-1.05,0-1.45c-0.2-0.2-0.46-0.3-0.72-0.3s-0.52,0.1-0.72,0.3L0.3,12.82
		c-0.02,0.02-0.02,0.04-0.04,0.06c-0.07,0.08-0.14,0.17-0.18,0.27C0.03,13.27,0,13.41,0,13.54s0.03,0.27,0.08,0.39
		c0.05,0.11,0.12,0.21,0.2,0.3c0.01,0.01,0.01,0.02,0.02,0.03l5.46,5.46c0.4,0.4,1.05,0.4,1.44,0c0.4-0.4,0.4-1.05,0-1.44
		l-3.72-3.72h9.13c0.56,0,1.02-0.46,1.02-1.02s-0.46-1.02-1.02-1.02H3.49L7.12,8.89z"/>
</g>
</svg>
