<?xml version="1.0" encoding="utf-8"?>
<!-- Generator: Adobe Illustrator 25.0.1, SVG Export Plug-In . SVG Version: 6.00 Build 0)  -->
<svg version="1.1" id="Calque_1" xmlns="http://www.w3.org/2000/svg" xmlns:xlink="http://www.w3.org/1999/xlink" x="0px" y="0px"
	 viewBox="0 0 23.28 26.72" style="enable-background:new 0 0 23.28 26.72;" xml:space="preserve">
<style type="text/css">
	.st0{fill:#FFFFFF;}
</style>
<path class="st0" d="M0.86,26.72c-0.13,0-0.27-0.03-0.39-0.09C0.18,26.48,0,26.19,0,25.86v-25C0,0.39,0.39,0,0.86,0
	s0.86,0.39,0.86,0.86v23.32l9.41-6.78c0.3-0.22,0.71-0.22,1.01,0l9.41,6.78V1.72H5.17c-0.48,0-0.86-0.39-0.86-0.86S4.7,0,5.17,0
	h17.24c0.48,0,0.86,0.39,0.86,0.86v25c0,0.32-0.18,0.62-0.47,0.77c-0.29,0.15-0.63,0.12-0.9-0.07l-10.27-7.4l-10.27,7.4
	C1.22,26.67,1.04,26.72,0.86,26.72z"/>
</svg>
