<?xml version="1.0" encoding="utf-8"?>
<!-- Generator: Adobe Illustrator 25.0.1, SVG Export Plug-In . SVG Version: 6.00 Build 0)  -->
<svg version="1.1" id="Calque_1" xmlns="http://www.w3.org/2000/svg" xmlns:xlink="http://www.w3.org/1999/xlink" x="0px" y="0px"
	 viewBox="0 0 713.36 355.51" style="enable-background:new 0 0 713.36 355.51;" xml:space="preserve">
<style type="text/css">
	.st0{fill:#FFFFFF;}
	.st1{fill:#64FFFF;}
</style>
<g>
	<path class="st0" d="M87.32,115.26c0-5.43-1.92-9.67-5.77-12.7c-3.85-3.03-10.6-6.17-20.27-9.42c-9.67-3.24-17.57-6.38-23.71-9.42
		C17.6,73.91,7.62,60.43,7.62,43.29c0-8.54,2.49-16.07,7.46-22.6C20.06,14.17,27.1,9.09,36.2,5.45C45.3,1.82,55.53,0,66.89,0
		C77.97,0,87.9,1.98,96.69,5.93c8.78,3.95,15.61,9.58,20.48,16.88c4.87,7.3,7.3,15.65,7.3,25.03H87.42c0-6.28-1.92-11.15-5.77-14.61
		c-3.85-3.46-9.05-5.19-15.61-5.19c-6.63,0-11.87,1.47-15.72,4.39c-3.85,2.93-5.77,6.65-5.77,11.17c0,3.95,2.12,7.53,6.35,10.74
		c4.23,3.21,11.68,6.53,22.33,9.95c10.65,3.42,19.4,7.11,26.25,11.06c16.65,9.6,24.98,22.83,24.98,39.69
		c0,13.48-5.08,24.06-15.24,31.75c-10.16,7.69-24.1,11.54-41.81,11.54c-12.49,0-23.8-2.24-33.92-6.72
		C23.37,147.14,15.75,141,10.64,133.2c-5.12-7.8-7.67-16.78-7.67-26.94h37.26c0,8.26,2.13,14.34,6.4,18.26
		c4.27,3.92,11.2,5.87,20.8,5.87c6.14,0,10.99-1.32,14.55-3.97C85.54,123.78,87.32,120.06,87.32,115.26z"/>
	<path class="st1" d="M272.22,156.22h-36.94l-54.61-95.89v95.89h-37.15V2.12h37.15l54.51,95.89V2.12h37.04V156.22z"/>
	<path class="st0" d="M289.58,97.9c0-11.43,2.22-21.61,6.67-30.54c4.44-8.93,10.83-15.79,19.16-20.59c8.33-4.8,18.1-7.2,29.32-7.2
		c17.15,0,30.66,5.31,40.54,15.93c9.88,10.62,14.82,25.07,14.82,43.34v1.27c0,17.85-4.96,32.02-14.87,42.49
		c-9.91,10.48-23.34,15.72-40.27,15.72c-16.3,0-29.39-4.89-39.27-14.66c-9.88-9.77-15.21-23.02-15.98-39.74L289.58,97.9z
		 M325.25,100.12c0,10.58,1.66,18.35,4.97,23.28c3.32,4.94,8.22,7.41,14.71,7.41c12.7,0,19.19-9.77,19.47-29.32v-3.6
		c0-20.53-6.56-30.8-19.69-30.8c-11.93,0-18.38,8.86-19.37,26.57L325.25,100.12z"/>
	<path class="st0" d="M536.82,98.75L554.5,2.12h36.83l-32.7,154.1H520.1l-20.64-87.85l-20.22,87.85h-38.42L408.01,2.12h36.94
		l17.68,96.63L483.8,2.12h31.54L536.82,98.75z"/>
</g>
<g>
	<path class="st0" d="M128.81,227.97H82.56V353.4H45.41V227.97H0v-28.68h128.81V227.97z"/>
	<path class="st0" d="M201.73,298.89h-20.11v54.51h-37.15v-154.1h60.65c18.27,0,32.56,4.05,42.87,12.16
		c10.3,8.11,15.45,19.56,15.45,34.36c0,10.71-2.17,19.59-6.51,26.64c-4.34,7.05-11.13,12.76-20.37,17.13l32.18,62.22v1.59h-39.8
		L201.73,298.89z M181.62,270.31h23.5c7.05,0,12.37-1.86,15.93-5.57c3.56-3.71,5.35-8.9,5.35-15.55c0-6.65-1.8-11.87-5.4-15.65
		c-3.6-3.78-8.89-5.68-15.88-5.68h-23.5V270.31z"/>
	<path class="st0" d="M283.97,209.35c0-5.08,1.83-9.24,5.5-12.49c3.67-3.24,8.43-4.87,14.29-4.87c5.86,0,10.62,1.62,14.29,4.87
		c3.67,3.25,5.5,7.41,5.5,12.49s-1.84,9.24-5.5,12.49c-3.67,3.25-8.43,4.87-14.29,4.87c-5.86,0-10.62-1.62-14.29-4.87
		C285.8,218.59,283.97,214.43,283.97,209.35z M321.86,353.4h-35.77V238.88h35.77V353.4z"/>
	<path class="st0" d="M392.24,327.99c5.01,0,8.89-1.36,11.64-4.08c2.75-2.72,4.09-6.51,4.02-11.38h33.45
		c0,12.56-4.5,22.86-13.49,30.91c-9,8.04-20.59,12.07-34.77,12.07c-16.65,0-29.78-5.22-39.37-15.67
		c-9.6-10.44-14.39-24.91-14.39-43.39v-1.48c0-11.57,2.13-21.79,6.4-30.64c4.27-8.85,10.43-15.67,18.47-20.43
		c8.04-4.76,17.57-7.14,28.58-7.14c14.89,0,26.71,4.13,35.46,12.38c8.75,8.26,13.12,19.44,13.12,33.55h-33.45
		c0-5.93-1.45-10.48-4.34-13.65c-2.89-3.18-6.77-4.76-11.64-4.76c-9.24,0-14.64,5.89-16.19,17.67c-0.49,3.74-0.74,8.89-0.74,15.45
		c0,11.5,1.38,19.47,4.13,23.92S386.25,327.99,392.24,327.99z"/>
	<path class="st0" d="M510.47,296.03l-15.24,16.72v40.64h-37.15v-154.1h37.15v67.95l12.91-19.58l33.23-48.37h45.93l-52.07,68.16
		l52.07,85.94h-44.03L510.47,296.03z"/>
	<path class="st0" d="M676.21,312.44c0-5.43-1.92-9.67-5.77-12.7c-3.85-3.03-10.6-6.17-20.27-9.42c-9.67-3.24-17.57-6.38-23.71-9.42
		c-19.97-9.81-29.95-23.28-29.95-40.43c0-8.54,2.49-16.07,7.46-22.6c4.97-6.53,12.01-11.61,21.12-15.24
		c9.1-3.63,19.33-5.45,30.69-5.45c11.08,0,21.01,1.98,29.79,5.93c8.78,3.95,15.61,9.58,20.48,16.88c4.87,7.3,7.3,15.65,7.3,25.03
		h-37.04c0-6.28-1.92-11.15-5.77-14.61c-3.85-3.46-9.05-5.19-15.61-5.19c-6.63,0-11.87,1.47-15.72,4.39
		c-3.85,2.93-5.77,6.65-5.77,11.17c0,3.95,2.12,7.53,6.35,10.74c4.23,3.21,11.68,6.53,22.33,9.95c10.65,3.42,19.4,7.11,26.25,11.06
		c16.65,9.6,24.98,22.83,24.98,39.69c0,13.48-5.08,24.06-15.24,31.75c-10.16,7.69-24.1,11.54-41.81,11.54
		c-12.49,0-23.8-2.24-33.92-6.72c-10.13-4.48-17.75-10.62-22.86-18.42c-5.12-7.8-7.67-16.78-7.67-26.94h37.26
		c0,8.26,2.13,14.34,6.4,18.26c4.27,3.92,11.2,5.87,20.8,5.87c6.14,0,10.99-1.32,14.55-3.97
		C674.43,320.95,676.21,317.23,676.21,312.44z"/>
</g>
</svg>
