<?xml version="1.0" encoding="utf-8"?>
<!-- Generator: Adobe Illustrator 25.0.1, SVG Export Plug-In . SVG Version: 6.00 Build 0)  -->
<svg version="1.1" id="Calque_1" xmlns="http://www.w3.org/2000/svg" xmlns:xlink="http://www.w3.org/1999/xlink" x="0px" y="0px"
	 viewBox="0 0 143.13 17.26" style="enable-background:new 0 0 143.13 17.26;" xml:space="preserve">
<style type="text/css">
	.st0{fill:#FFFFFF;}
	.st1{fill:#64FFFF;}
</style>
<g>
	<path class="st0" d="M8.9,12.71c0-0.57-0.2-1.02-0.61-1.34c-0.41-0.32-1.12-0.65-2.14-0.99C5.14,10.04,4.3,9.7,3.65,9.38
		C1.55,8.35,0.49,6.93,0.49,5.12c0-0.9,0.26-1.7,0.79-2.39C1.8,2.04,2.55,1.51,3.51,1.12c0.96-0.38,2.04-0.58,3.24-0.58
		c1.17,0,2.22,0.21,3.15,0.63s1.65,1.01,2.16,1.78c0.51,0.77,0.77,1.65,0.77,2.64H8.92c0-0.66-0.2-1.18-0.61-1.54
		C7.9,3.69,7.35,3.51,6.66,3.51c-0.7,0-1.25,0.15-1.66,0.46c-0.41,0.31-0.61,0.7-0.61,1.18c0,0.42,0.22,0.79,0.67,1.13
		c0.45,0.34,1.23,0.69,2.36,1.05C8.54,7.7,9.47,8.08,10.19,8.5c1.76,1.01,2.64,2.41,2.64,4.19c0,1.42-0.54,2.54-1.61,3.35
		c-1.07,0.81-2.54,1.22-4.41,1.22c-1.32,0-2.51-0.24-3.58-0.71c-1.07-0.47-1.87-1.12-2.41-1.94S0,12.84,0,11.76h3.93
		c0,0.87,0.23,1.51,0.68,1.93c0.45,0.41,1.18,0.62,2.2,0.62c0.65,0,1.16-0.14,1.54-0.42C8.72,13.61,8.9,13.22,8.9,12.71z"/>
	<path class="st1" d="M28.42,17.04h-3.9L18.76,6.92v10.12h-3.92V0.77h3.92l5.75,10.12V0.77h3.91V17.04z"/>
	<path class="st0" d="M30.25,10.88c0-1.21,0.23-2.28,0.7-3.22c0.47-0.94,1.14-1.67,2.02-2.17s1.91-0.76,3.09-0.76
		c1.81,0,3.24,0.56,4.28,1.68c1.04,1.12,1.56,2.65,1.56,4.57v0.13c0,1.88-0.52,3.38-1.57,4.49s-2.46,1.66-4.25,1.66
		c-1.72,0-3.1-0.52-4.15-1.55c-1.04-1.03-1.6-2.43-1.69-4.19L30.25,10.88z M34.02,11.12c0,1.12,0.17,1.94,0.52,2.46
		c0.35,0.52,0.87,0.78,1.55,0.78c1.34,0,2.03-1.03,2.06-3.09v-0.38c0-2.17-0.69-3.25-2.08-3.25c-1.26,0-1.94,0.93-2.04,2.8
		L34.02,11.12z"/>
	<path class="st0" d="M56.35,10.97l1.87-10.2h3.89l-3.45,16.27h-4.07l-2.18-9.27l-2.13,9.27h-4.06L42.75,0.77h3.9l1.87,10.2
		l2.23-10.2h3.33L56.35,10.97z"/>
	<path class="st0" d="M81.43,3.8h-4.88v13.24h-3.92V3.8h-4.79V0.77h13.6V3.8z"/>
	<path class="st0" d="M89.13,11.28H87v5.75h-3.92V0.77h6.4c1.93,0,3.44,0.43,4.52,1.28c1.09,0.86,1.63,2.06,1.63,3.63
		c0,1.13-0.23,2.07-0.69,2.81c-0.46,0.74-1.17,1.35-2.15,1.81l3.4,6.57v0.17H92L89.13,11.28z M87,8.27h2.48
		c0.75,0,1.31-0.2,1.68-0.59c0.38-0.39,0.56-0.94,0.56-1.64c0-0.7-0.19-1.25-0.57-1.65c-0.38-0.4-0.94-0.6-1.68-0.6H87V8.27z"/>
	<path class="st0" d="M97.81,1.83c0-0.54,0.19-0.98,0.58-1.32C98.77,0.17,99.28,0,99.9,0s1.12,0.17,1.51,0.51
		c0.39,0.34,0.58,0.78,0.58,1.32c0,0.54-0.19,0.98-0.58,1.32c-0.39,0.34-0.89,0.51-1.51,0.51s-1.12-0.17-1.51-0.51
		C98,2.81,97.81,2.37,97.81,1.83z M101.81,17.04h-3.78V4.95h3.78V17.04z"/>
	<path class="st0" d="M109.23,14.36c0.53,0,0.94-0.14,1.23-0.43s0.43-0.69,0.42-1.2h3.53c0,1.33-0.47,2.41-1.42,3.26
		c-0.95,0.85-2.17,1.27-3.67,1.27c-1.76,0-3.14-0.55-4.16-1.65c-1.01-1.1-1.52-2.63-1.52-4.58v-0.16c0-1.22,0.23-2.3,0.68-3.23
		c0.45-0.93,1.1-1.65,1.95-2.16c0.85-0.5,1.85-0.75,3.02-0.75c1.57,0,2.82,0.44,3.74,1.31s1.39,2.05,1.39,3.54h-3.53
		c0-0.63-0.15-1.11-0.46-1.44c-0.31-0.33-0.71-0.5-1.23-0.5c-0.98,0-1.55,0.62-1.71,1.87c-0.05,0.39-0.08,0.94-0.08,1.63
		c0,1.21,0.15,2.06,0.44,2.52S108.6,14.36,109.23,14.36z"/>
	<path class="st0" d="M121.71,10.98l-1.61,1.77v4.29h-3.92V0.77h3.92v7.17l1.36-2.07l3.51-5.11h4.85l-5.5,7.19l5.5,9.07h-4.65
		L121.71,10.98z"/>
	<path class="st0" d="M139.21,12.71c0-0.57-0.2-1.02-0.61-1.34c-0.41-0.32-1.12-0.65-2.14-0.99c-1.02-0.34-1.85-0.67-2.5-0.99
		c-2.11-1.04-3.16-2.46-3.16-4.27c0-0.9,0.26-1.7,0.79-2.39c0.52-0.69,1.27-1.23,2.23-1.61c0.96-0.38,2.04-0.58,3.24-0.58
		c1.17,0,2.22,0.21,3.15,0.63s1.65,1.01,2.16,1.78c0.51,0.77,0.77,1.65,0.77,2.64h-3.91c0-0.66-0.2-1.18-0.61-1.54
		c-0.41-0.36-0.96-0.55-1.65-0.55c-0.7,0-1.25,0.15-1.66,0.46c-0.41,0.31-0.61,0.7-0.61,1.18c0,0.42,0.22,0.79,0.67,1.13
		c0.45,0.34,1.23,0.69,2.36,1.05c1.12,0.36,2.05,0.75,2.77,1.17c1.76,1.01,2.64,2.41,2.64,4.19c0,1.42-0.54,2.54-1.61,3.35
		c-1.07,0.81-2.54,1.22-4.41,1.22c-1.32,0-2.51-0.24-3.58-0.71c-1.07-0.47-1.87-1.12-2.41-1.94s-0.81-1.77-0.81-2.84h3.93
		c0,0.87,0.23,1.51,0.68,1.93c0.45,0.41,1.18,0.62,2.2,0.62c0.65,0,1.16-0.14,1.54-0.42C139.02,13.61,139.21,13.22,139.21,12.71z"/>
</g>
</svg>
